<svg id="Capa_1" enable-background="new 0 0 512 512" height="512" viewBox="0 0 512 512" width="512" xmlns="http://www.w3.org/2000/svg"><g><path d="m461.627 114.373 45.686-43.745c6.248-6.248 6.248-16.379 0-22.627l-43.313-43.315c-6.248-6.248-16.379-6.248-22.627 0l-43.745 45.686z" fill="#00c6cb"/><path d="m50.787 114.787-46.394-45.574c-5.858-5.858-5.858-15.355 0-21.213l43.607-43.607c5.858-5.858 15.355-5.858 21.213 0l45.574 46.393z" fill="#f17ab4"/><path d="m375.17 512h-87.17c-8.284 0-15-6.716-15-15s6.716-15 15-15h87.17c31.403 0 47.237-37.936 25.115-60.263l-3.832-3.861c-5.836-5.88-5.8-15.378.08-21.213s15.378-5.8 21.213.08l3.841 3.87c41.012 41.391 11.585 111.387-46.417 111.387z" fill="#c2d1f1"/><path d="m467.02 98.56-53.58-53.58c-17.54-17.551-46.09-17.551-63.63 0l-36.02 36.02h-115.58l-35.61-35.61c-17.54-17.54-46.09-17.54-63.63 0l-53.58 53.58c-17.54 17.54-17.54 46.09 0 63.63l35.61 35.61v187.79c0 24.81 20.19 45 45 45h260c24.81 0 45-20.19 45-45v-187.79l36.02-36.02c17.55-17.54 17.55-46.09 0-63.63zm-66.02 287.44c0 8.27-6.73 15-15 15h-33.23c5.65-23.81 24.42-42.58 48.23-48.23z" fill="#0a789b"/><path d="m467.02 98.56-53.58-53.58c-17.54-17.551-46.09-17.551-63.63 0l-36.02 36.02h-57.79v350h130c24.81 0 45-20.19 45-45v-187.79l36.02-36.02c17.55-17.54 17.55-46.09 0-63.63zm-66.02 287.44c0 8.27-6.73 15-15 15h-33.23c5.65-23.81 24.42-42.58 48.23-48.23z" fill="#0a617d"/><path d="m160 160h192v128h-192z" fill="#e9edfd"/><path d="m256 160h96v128h-96z" fill="#d8e1fd"/><path d="m352 145h-192c-8.28 0-15 6.72-15 15v128c0 8.28 6.72 15 15 15h192c8.28 0 15-6.72 15-15v-128c0-8.28-6.72-15-15-15zm-15 128h-162v-98h162z" fill="#0a617d"/><path d="m367 160v128c0 8.28-6.72 15-15 15h-96v-30h81v-98h-81v-30h96c8.28 0 15 6.72 15 15z" fill="#08475e"/><path d="m224 247c-8.284 0-15-6.716-15-15v-16c0-8.284 6.716-15 15-15s15 6.716 15 15v16c0 8.284-6.716 15-15 15z" fill="#d8e1fd"/><path d="m288 247c-8.284 0-15-6.716-15-15v-16c0-8.284 6.716-15 15-15s15 6.716 15 15v16c0 8.284-6.716 15-15 15z" fill="#c2d1f1"/><path d="m224 367c-13.286 0-20.052-16.159-10.61-25.601 6.332-6.315 16.67-5.708 22.21 1.09 7.966 9.77 1.054 24.511-11.6 24.511z" fill="#f17ab4"/><path d="m288 367c-13.286 0-20.052-16.159-10.61-25.601 6.332-6.315 16.67-5.708 22.21 1.09 8.002 9.815 1.012 24.511-11.6 24.511z" fill="#00c6cb"/><path d="m149.39 362.609c-8.835-8.835-3.596-24.192 9.13-25.54 8.996-.824 16.48 6.182 16.48 14.931 0 13.209-15.89 20.059-25.61 10.609z" fill="#0a617d"/></g></svg>